<?xml version="1.0" encoding="UTF-8"?> <svg xmlns="http://www.w3.org/2000/svg" width="200" height="80" viewBox="0 0 164 40" fill="none"><path d="M37.9469 16.294C39.4905 23.9581 36.1207 31.7681 29.519 35.8677C20.8223 41.2666 9.43813 38.5359 4.08369 29.767C-1.27074 20.9981 1.43749 9.51931 10.1341 4.12039C11.9879 2.96695 14.0208 2.16093 16.157 1.72318C26.163 -0.312702 35.9209 6.20491 37.9469 16.294ZM0.396923 23.972C2.57453 34.7976 13.0353 41.7878 23.7717 39.599C34.5013 37.4033 41.4407 26.8487 39.2631 16.03C37.0924 5.20434 26.6247 -1.79271 15.8883 0.402985C13.6004 0.868528 11.4159 1.73708 9.43124 2.9739C2.35401 7.37225 -1.25696 15.752 0.396923 23.972ZM5.58597 13.3826H35.1215C34.4875 11.8748 33.6468 10.4573 32.6131 9.19273H12.8355C9.96186 9.5471 7.34321 11.0619 5.58597 13.3826ZM3.40147 19.1915H13.4763C13.6831 17.5517 14.5031 16.0508 15.778 15.0016H4.57297C3.90452 16.301 3.50484 17.7323 3.40147 19.1915ZM19.2029 19.1915H30.0978C30.3046 17.5517 31.1246 16.0508 32.3995 15.0016H21.5046C20.2297 16.0508 19.4096 17.5517 19.2029 19.1915ZM13.4695 20.8105H3.40147C3.51173 22.2766 3.91142 23.701 4.58675 25.0004H15.778C14.5031 23.9512 13.6762 22.4503 13.4695 20.8105ZM30.0978 20.8105H19.2029C19.4096 22.4573 20.2297 23.9581 21.5046 25.0004H32.3995C31.1246 23.9512 30.3046 22.4503 30.0978 20.8105ZM32.6751 30.8093C33.695 29.5377 34.5289 28.1272 35.1559 26.6194H5.59975C7.40523 28.9888 10.0928 30.5035 13.0353 30.8093H20.3882H32.6751ZM54.2031 22.0543H51.9152C51.6672 22.0543 51.4191 21.9987 51.1779 21.8805C50.9367 21.7694 50.73 21.6165 50.5439 21.4289C50.3578 21.2413 50.2062 21.0259 50.096 20.7896C49.9857 20.5464 49.9237 20.3032 49.9237 20.0462C49.9237 19.7821 49.9788 19.5181 50.096 19.261C50.2062 19.0039 50.3578 18.7815 50.5439 18.587C50.73 18.3924 50.9436 18.2326 51.1779 18.1145C51.4191 17.9964 51.6672 17.9338 51.9359 17.9338H54.2031V22.0543ZM59.2337 22.4156V14.9808H48.8762C48.8073 14.9808 48.6626 15.0225 48.4283 15.0989C48.194 15.1753 47.9253 15.3073 47.6152 15.481C47.3051 15.6548 46.9743 15.8771 46.6228 16.1411C46.2714 16.4052 45.9475 16.7248 45.6512 17.0931C45.3549 17.4613 45.1068 17.8852 44.9138 18.3646C44.7209 18.8441 44.6244 19.3861 44.6244 19.9906C44.6244 20.602 44.7209 21.1579 44.9138 21.6443C45.1068 22.1307 45.3549 22.5615 45.6512 22.9298C45.9475 23.298 46.2714 23.6176 46.6228 23.8817C46.9743 24.1457 47.3051 24.3681 47.6152 24.5348C47.9253 24.7016 48.2009 24.8197 48.4283 24.8962C48.6626 24.9726 48.8073 25.0073 48.8762 25.0073H53.0936L54.21 22.4225V25.0073H58.9029L59.4611 23.7219C59.6058 23.4022 59.7367 23.1104 59.8608 22.8394C59.9779 22.5684 60.0399 22.4295 60.0399 22.4156H59.2337ZM66.18 14.9808L61.6869 25.0004H65.3668L66.5176 22.4156H65.7251L66.683 20.2894L68.9709 25.0004H72.6508C73.0229 24.1179 73.3605 23.3328 73.6638 22.6379C73.7947 22.3461 73.9256 22.0542 74.0428 21.7763C74.1599 21.4984 74.2702 21.2482 74.3735 21.0259C74.47 20.8035 74.5803 20.5603 74.7043 20.2963L76.9922 25.0073H80.6721L81.7884 22.4225H81.0304L77.888 14.9877H74.2082L73.0987 17.4752C72.954 17.781 72.8161 18.0867 72.6783 18.3994C72.5474 18.7051 72.4233 18.9761 72.32 19.1985C72.189 19.4764 72.0719 19.7404 71.9823 19.9836C71.8514 19.6918 71.7342 19.4277 71.6309 19.1915C71.5344 18.9553 71.4241 18.6912 71.3001 18.3924C71.1829 18.0937 71.052 17.7879 70.9211 17.4822C70.6179 16.7457 70.2664 15.9188 69.8667 14.9947H66.18V14.9808ZM91.5119 14.9808L90.0578 17.9477H89.2447V10.9715H84.5518L83.4147 13.5563L84.2072 13.9593V25.0073H88.8794L90.0303 22.4225C89.8166 22.2766 89.6306 22.0681 89.4721 21.8041C89.3136 21.5401 89.2309 21.283 89.2309 21.0398C89.2309 20.8383 89.3067 20.6715 89.4514 20.5256C89.5961 20.3866 89.8442 20.3102 90.1888 20.2963L92.4766 25.0073H96.1565L97.3073 22.4225H96.5149L95.1228 19.5528V18.7538L96.4528 14.9877H91.5119V14.9808ZM108.168 20.8174C108.064 21.0606 107.913 21.2691 107.72 21.4497C107.527 21.6304 107.306 21.7763 107.051 21.8805C106.796 21.9848 106.535 22.0404 106.259 22.0404C105.99 22.0404 105.742 21.9848 105.501 21.8805C105.26 21.7763 105.053 21.6304 104.867 21.4497C104.681 21.2691 104.529 21.0606 104.419 20.8174C104.309 20.5742 104.254 20.3241 104.254 20.0531C104.254 19.7752 104.309 19.5042 104.419 19.2401C104.529 18.9761 104.681 18.7538 104.867 18.5661C105.053 18.3785 105.267 18.2257 105.501 18.1145C105.742 18.0033 105.99 17.9477 106.259 17.9477C106.535 17.9477 106.803 18.0033 107.051 18.1145C107.3 18.2257 107.527 18.3785 107.72 18.5661C107.913 18.7538 108.058 18.9761 108.168 19.2401C108.271 19.5042 108.326 19.7682 108.326 20.0531C108.326 20.3171 108.271 20.5742 108.168 20.8174ZM113.488 19.3583C113.357 18.6843 113.095 18.052 112.702 17.4752C112.309 16.8985 111.82 16.3843 111.221 15.9396C110.628 15.4949 109.966 15.1753 109.257 14.9738H103.22C102.676 15.1614 102.2 15.3768 101.78 15.627C101.359 15.8771 101.001 16.1342 100.705 16.3982C100.408 16.6692 100.153 16.9402 99.9466 17.2182C99.7399 17.4961 99.5745 17.774 99.4367 18.0381C99.1335 18.6704 98.9681 19.3166 98.9405 19.9836C98.9405 20.7063 99.099 21.3525 99.4091 21.9153C99.7192 22.4851 100.098 22.9784 100.553 23.4022C101.001 23.8191 101.47 24.1666 101.952 24.4376C102.434 24.7016 102.855 24.8892 103.213 25.0004H109.353C110.49 24.5209 111.386 23.9651 112.027 23.3397C112.668 22.7143 113.109 22.0612 113.336 21.3872C113.57 20.7132 113.626 20.0323 113.488 19.3583ZM124.81 22.0543H122.522C122.267 22.0543 122.026 21.9987 121.785 21.8805C121.544 21.7694 121.337 21.6165 121.151 21.4289C120.965 21.2413 120.813 21.0259 120.703 20.7896C120.593 20.5464 120.531 20.3032 120.531 20.0462C120.531 19.7821 120.586 19.5181 120.689 19.261C120.792 19.0039 120.944 18.7815 121.137 18.587C121.33 18.3924 121.544 18.2326 121.785 18.1145C122.026 17.9964 122.274 17.9338 122.543 17.9338H124.81V22.0543ZM129.841 27.4323V14.9808H119.483C119.414 14.9808 119.269 15.0225 119.035 15.0989C118.801 15.1823 118.532 15.3073 118.222 15.481C117.912 15.6548 117.581 15.8771 117.23 16.1411C116.878 16.4121 116.554 16.7248 116.258 17.0931C115.962 17.4613 115.714 17.8852 115.521 18.3646C115.328 18.8441 115.231 19.3861 115.231 19.9906C115.231 20.602 115.328 21.1579 115.521 21.6443C115.714 22.1307 115.955 22.5615 116.258 22.9298C116.561 23.298 116.878 23.6176 117.23 23.8817C117.581 24.1457 117.912 24.3681 118.222 24.5348C118.532 24.7016 118.808 24.8197 119.035 24.8962C119.269 24.9726 119.414 25.0073 119.483 25.0073H123.7L124.817 22.4225V30.0241H129.51L130.068 28.7386C130.213 28.419 130.344 28.1272 130.468 27.8562C130.585 27.5921 130.647 27.4462 130.647 27.4323H129.841ZM141.521 20.7896C141.418 21.0328 141.266 21.2413 141.073 21.4219C140.88 21.6026 140.66 21.7485 140.405 21.8527C140.15 21.957 139.888 22.0126 139.612 22.0126C139.343 22.0126 139.095 21.957 138.854 21.8527C138.613 21.7485 138.406 21.6026 138.22 21.4219C138.034 21.2413 137.882 21.0328 137.772 20.7896C137.662 20.5464 137.607 20.2963 137.607 20.0253C137.607 19.7474 137.662 19.4764 137.772 19.2123C137.882 18.9483 138.034 18.726 138.22 18.5384C138.406 18.3507 138.62 18.1979 138.854 18.0867C139.095 17.9755 139.343 17.9199 139.612 17.9199C139.888 17.9199 140.157 17.9755 140.405 18.0867C140.66 18.1979 140.88 18.3507 141.073 18.5384C141.266 18.726 141.418 18.9483 141.521 19.2123C141.624 19.4764 141.68 19.7404 141.68 20.0253C141.68 20.2963 141.624 20.5464 141.521 20.7896ZM146.848 19.3374C146.717 18.6634 146.455 18.0311 146.062 17.4544C145.67 16.8707 145.18 16.3635 144.581 15.9188C143.981 15.481 143.327 15.1545 142.61 14.9599H136.566C136.022 15.1475 135.54 15.3629 135.126 15.6131C134.706 15.8632 134.347 16.1203 134.051 16.3843C133.755 16.6484 133.5 16.9263 133.293 17.2043C133.086 17.4822 132.921 17.7601 132.783 18.0242C132.48 18.6495 132.314 19.3027 132.287 19.9697C132.287 20.6924 132.445 21.3386 132.755 21.9014C133.066 22.4712 133.445 22.9645 133.899 23.3814C134.347 23.7983 134.816 24.1457 135.298 24.4167C135.781 24.6807 136.201 24.8684 136.559 24.9795H142.699C143.836 24.5001 144.732 23.9442 145.373 23.3189C146.014 22.6935 146.455 22.0404 146.683 21.3664C146.931 20.6854 146.979 20.0114 146.848 19.3374ZM158.508 20.7966C158.397 21.0398 158.246 21.2482 158.06 21.4358C157.874 21.6234 157.66 21.7763 157.426 21.8875C157.185 21.9987 156.943 22.0543 156.688 22.0543H154.401V17.9477H156.668C156.923 17.9477 157.171 18.0103 157.412 18.1284C157.653 18.2465 157.874 18.4063 158.067 18.6009C158.26 18.7954 158.404 19.0178 158.515 19.2749C158.618 19.532 158.673 19.7891 158.673 20.0601C158.673 20.3032 158.618 20.5534 158.508 20.7966ZM163.697 18.3716C163.504 17.8921 163.256 17.4683 162.959 17.1C162.663 16.7318 162.339 16.4121 161.988 16.1481C161.636 15.8771 161.306 15.6617 160.995 15.488C160.685 15.3143 160.41 15.1892 160.169 15.1058C159.927 15.0225 159.783 14.9877 159.727 14.9877H149.708L148.578 17.5725L149.37 17.9755V30.0241H154.063L154.621 28.7386C154.766 28.419 154.897 28.1272 155.021 27.8562C155.138 27.5921 155.2 27.4462 155.2 27.4323H154.408V22.4225L155.524 25.0073H159.741C159.796 25.0073 159.941 24.9726 160.182 24.8962C160.423 24.8197 160.692 24.7016 161.009 24.5348C161.319 24.3681 161.65 24.1527 162.002 23.8817C162.353 23.6107 162.677 23.298 162.973 22.9298C163.27 22.5615 163.518 22.1376 163.711 21.6443C163.904 21.1579 164 20.602 164 19.9906C163.979 19.393 163.89 18.851 163.697 18.3716Z" fill="white"></path></svg> 