<svg xmlns="http://www.w3.org/2000/svg" version="1.0" width="200" height="50" viewBox="0 0 594.000000 60.000000" preserveAspectRatio="xMidYMid meet">

<g transform="translate(0.000000,60.000000) scale(0.100000,-0.100000)" fill="#005198" stroke="none">
<path d="M0 305 l0 -295 550 0 550 0 45 69 c44 68 45 72 45 150 l0 80 -49 3 -49 3 44 68 c42 64 44 71 44 142 l0 75 -590 0 -590 0 0 -295z m774 113 c8 -13 8 -23 0 -35 -10 -16 -32 -18 -178 -21 l-166 -2 0 40 0 40 166 -2 c146 -3 168 -5 178 -20z m-10 -171 c11 -8 17 -23 14 -38 l-3 -24 -172 -3 -173 -2 0 40 0 40 158 0 c114 0 163 -4 176 -13z"></path>
<path d="M1317 593 c-4 -3 -7 -136 -7 -295 l0 -288 518 0 518 0 26 80 26 80 -316 2 -317 3 0 35 0 35 293 3 292 2 0 60 0 60 -295 0 -295 0 0 30 0 30 295 0 295 0 0 85 0 85 -513 0 c-283 0 -517 -3 -520 -7z"></path>
<path d="M2500 305 l0 -295 459 0 459 0 26 78 c14 42 26 80 26 85 0 4 -112 7 -250 7 l-250 0 0 210 0 210 -235 0 -235 0 0 -295z"></path>
<path d="M3657 593 c-3 -5 -28 -66 -56 -136 l-51 -127 0 -160 0 -160 220 0 220 0 0 35 0 35 85 0 85 0 0 -35 0 -35 225 0 225 0 0 158 0 158 -54 134 -54 135 -420 3 c-232 1 -423 -1 -425 -5z m448 -163 c6 -10 35 -165 35 -187 0 -9 -19 -13 -60 -13 -68 0 -66 -5 -50 100 17 107 18 110 45 110 13 0 27 -4 30 -10z"></path>
<path d="M4710 515 l0 -85 217 0 c146 0 214 -3 207 -10 -6 -6 -98 -63 -205 -128 l-194 -118 -3 -82 -3 -82 577 2 577 3 28 82 28 83 -257 2 -257 3 215 126 215 127 3 81 3 81 -576 0 -575 0 0 -85z"></path>
</g>
</svg>