<?xml version="1.0" encoding="utf-8"?>
<!-- Generator: Adobe Illustrator 23.0.2, SVG Export Plug-In . SVG Version: 6.00 Build 0)  -->
<svg version="1.1" id="Layer_1" xmlns="http://www.w3.org/2000/svg" xmlns:xlink="http://www.w3.org/1999/xlink" x="0px" y="0px"
	 viewBox="0 0 1000 1000" style="enable-background:new 0 0 1000 1000;" xml:space="preserve">
<style type="text/css">
	.st0{fill:#E21E24;}
</style>
<g id="МТЗ">
	<path class="st0" d="M87,336c-0.9,0.3-20,6.1-25,25c-3.7,14,1.9,29.1,14,38c38.7,42.1,83.5,86.8,135,132
		c56.8,49.9,112,91.8,163,127c3.9,3,15.9,11.1,33,11c12.3-0.1,21.5-4.5,26-7c29-18.3,58-36.7,87-55c-24.6-15.1-49.6-31.4-75-49
		c-77.5-53.8-143.8-109.9-200-164c-11.2-5.8-16.4-18.3-13-29c2.7-8.4,10.6-14.7,20-16c82.6-15,186.8-26.4,307-22
		c149.2,5.5,273.8,33.7,366,62c4.1-4.6,8.9-12,9-21c0.1-13.7-10.3-26.9-26-32c-98.4-28.9-238.4-58.7-408-59
		C328,276.7,186.1,306.9,87,336z"/>
	<path class="st0" d="M320,405c39,32.3,78,64.7,117,97c36.7-2,77.2-2.4,121,0c36.3,2,70,5.5,101,10c8.2,1.8,14.8,7.5,17,15
		c3,10-2.2,21.7-13,27c-71.7,48-143.3,96-215,144c3.1,3.5,22.8,25.4,52,24c10.8-0.5,19.3-4,25-7c6.8-3.8,19.3-11,35-20
		c0,0,165-95,263-204c6.2-6.9,17.6-20.2,15-35c-2.3-13.6-12.6-24.6-26-28c-66.6-16.1-149.4-30.5-245-35
		C471.5,388.5,387.8,395.2,320,405z"/>
</g>
</svg>
