<svg width="212" height="50" fill="none" xmlns="http://www.w3.org/2000/svg"><path d="M12 32L0 0h10c2.5 0 4.5 1 5.5 3.5L21 19c1 2 3 1.5 4.5 0L40 4.5c4-4 5-4.5 8.5-4.5h13L30 32c-2 2-3 2.5-6 2.5h-7c-1 0-4 0-5-2.5z" fill="#fff"/><path fill-rule="evenodd" clip-rule="evenodd" d="M63.5 34.5c9.665 0 22.5-7.335 22.5-17C86 8.995 82 0 63.5 0 53.835 0 44 7.835 44 17.5c0 11 10 17 19.5 17zm1-11.51c3.222 0 7.5-2.462 7.5-5.5 0-2.997-1.333-6.324-7.5-6.324-3.222 0-6.5 3.287-6.5 6.325 0 3.457 3.333 5.5 6.5 5.5z" fill="#fff"/><path d="M79.266 30l11-30h13.5l-7.5 20c-.766 2.5 1 3 3 3h11l18-18c2.5-2.5 6-5 9-5h74l-4.5 11h-17.5l-8.5 23.5h-13.5l8.5-23.5h-17.5l-7.5 20.5c-.501 1.5-1.001 3-3.5 3h-26.5l11.5-11.5h6c1.5 0 2-.5 2.5-2l3.5-10h-3.5c-1.5 0-2 0-3.5 1.5l-22 22h-33c-2 0-4-1.5-3-4.5zM60 0h4v1h-4V0z" fill="#fff"/></svg>